<svg width="480" height="480" viewBox="0 0 480 480" fill="none" xmlns="http://www.w3.org/2000/svg">
<g clip-path="url(#clip0_1315_4002)">
<path d="M0 240C0 372.548 107.452 480 240 480C372.548 480 480 372.548 480 240C480 107.452 372.548 0 240 0C107.452 0 0 107.452 0 240Z" fill="#6E54FF"/>
<g filter="url(#filter0_d_1315_4002)">
<path d="M240.135 90C196.78 90 90 196.68 90 240C90 283.318 196.78 390 240.135 390C283.491 390 390.273 283.316 390.273 240C390.273 196.682 283.493 90 240.135 90ZM216.739 325.774C198.457 320.796 149.302 234.89 154.285 216.624C159.268 198.357 245.251 149.248 263.533 154.226C281.817 159.204 330.971 245.108 325.989 263.376C321.005 281.642 235.023 330.752 216.739 325.774Z" fill="white"/>
</g>
</g>
<defs>
<filter id="filter0_d_1315_4002" x="75" y="90" width="330.273" height="330" filterUnits="userSpaceOnUse" color-interpolation-filters="sRGB">
<feFlood flood-opacity="0" result="BackgroundImageFix"/>
<feColorMatrix in="SourceAlpha" type="matrix" values="0 0 0 0 0 0 0 0 0 0 0 0 0 0 0 0 0 0 127 0" result="hardAlpha"/>
<feOffset dy="15"/>
<feGaussianBlur stdDeviation="7.5"/>
<feComposite in2="hardAlpha" operator="out"/>
<feColorMatrix type="matrix" values="0 0 0 0 0 0 0 0 0 0 0 0 0 0 0 0 0 0 0.125 0"/>
<feBlend mode="normal" in2="BackgroundImageFix" result="effect1_dropShadow_1315_4002"/>
<feBlend mode="normal" in="SourceGraphic" in2="effect1_dropShadow_1315_4002" result="shape"/>
</filter>
<clipPath id="clip0_1315_4002">
<rect width="480" height="480" fill="white"/>
</clipPath>
</defs>
</svg>
