<svg width="51" height="64" viewBox="0 0 51 64" fill="none" xmlns="http://www.w3.org/2000/svg">
<g clip-path="url(#clip0_12085_53671)">
<path d="M26.8585 62.7992V60.1095H25.5769V58.7647H24.2923V56.072H23.0108V53.3823H21.7292V52.0375H20.4446V47.9999H19.1631V46.6551H17.8815V43.9654H16.5969V39.9279H15.3154V38.583H14.0338V35.8904H12.7492V33.2007H12.5955V34.5455H6.18465V35.8904H2.48774V34.5455H1.20618V29.4543H2.48774V24.072H3.76929V17.3448H5.05387V6.58005H6.33543V5.23521H8.90156V2.54552H10.1831V1.20068H19.0093V2.54552H20.2908V3.89036H21.5754V5.23521H24.1385V6.58305H25.4231V7.92789H27.9862V9.27273H29.2708V10.6176H30.5524V11.9624H34.4001V14.6551L38.2508 14.6521L38.2477 17.3448H42.0984V20.0345H44.6616V23.7838H42.0984V26.4735H38.2477V29.1632H36.9662V29.4543H38.2508L38.2477 32.144H39.5323V33.4889H40.8139V36.1815H42.0984L42.0954 40.2191H43.38V41.5639H44.6616V42.9088H45.9461L45.9431 46.9463H47.2277V49.636H49.7938V53.3823H48.5093V54.7271H47.2277V56.072H45.9461V57.4198H44.6616V58.7647H42.0984V61.4543H36.9662V62.7992H26.8585Z" fill="black"/>
<path d="M17.8031 2.4015V3.74634H19.0847V5.09118H20.3692V6.43602H22.9324V7.78387H24.2169V9.12871H26.78V10.4735H28.0646V11.8184H29.3462V13.1632H33.1939V15.8559H37.0416V18.5456H40.8893V21.2353H43.4554V22.5801H40.8893V25.2698H37.0416V27.9595H35.76V30.6492H37.0416V33.3388H38.3261V34.6837H39.6077V37.3734H40.8893V38.7182V41.4109H42.1738V42.7557H43.4554V44.1006H44.7369V45.4454V48.1381H46.0215V50.8278H48.5846V52.1726H47.3031V53.5174H46.0215V54.8623H44.74V56.2071H43.4584V57.552H42.1768V56.2071H40.8953V60.2447H35.766V61.5895H28.0707V58.8998H26.7891V57.555H25.5075V54.8653H24.226V52.1756H22.9444V50.8308H21.6629V46.7932H20.3813V45.4484H19.0997V42.7587H17.8182V38.7212H16.5366V37.3764H15.2551V34.6867H13.9735V31.997H11.4074V33.3418H4.99355V34.6867H3.712V33.3418H2.43044V30.6522H3.712V29.3073V25.2698H4.99355V18.5426H6.27813V11.8154H7.55969V10.4705H6.27813V7.77786H7.55969V6.43302H8.84125V7.77786H10.1258V3.74334H11.4074V2.3985H17.8212M20.2155 0H8.97694V1.34484H7.69538V4.03452H5.12925V5.37936H3.84769V16.1441H2.56312V22.8713H1.28156V28.2537H0V35.7463H1.28156V37.0912H7.38781V35.7463H11.5401V37.0912H12.8216V39.7809H14.1032V41.1257H15.3847V45.1632H16.6663V47.8529H17.9478V49.1977H19.2294V53.2353H20.511V54.5801H21.7925V57.2698H23.0741V59.9595H24.3556V61.3043H25.6372V63.994H38.1573V62.6492H43.2865V59.9595H45.8527V58.6146H47.1342V57.2698H48.4158V55.925H49.6973V54.5801H50.9789V48.4323H48.4158V45.7426H47.1312V45.4514V44.1066V41.7051H45.8496V40.3602H44.5681V39.0154H43.2835V38.7242V37.3794V34.9779H42.0019V32.2882H40.7204V30.9433H39.4358V30.6552V28.2537V27.6743H43.2835V24.9846H45.8496V18.8368H43.2835V16.1471H39.4358V15.8589V13.4574H37.0235H35.5881V10.7647H31.7404V9.41989H30.4589V8.07505H29.1743V6.73021H26.6112V5.38537H25.3266V4.03752H22.7635V2.69268H21.4789V1.34784H20.1974V0H20.2155Z" fill="white"/>
<path d="M35.9017 60.2534H34.6202V61.5983H35.9017V60.2534Z" fill="black"/>
<path d="M34.6202 60.2534H33.3386V61.5983H34.6202V60.2534Z" fill="black"/>
<path d="M33.3386 60.2534H32.0571V61.5983H33.3386V60.2534Z" fill="black"/>
<path d="M32.054 60.2534H30.7725V61.5983H32.054V60.2534Z" fill="black"/>
<path d="M30.7725 60.2534H29.4909V61.5983H30.7725V60.2534Z" fill="black"/>
<path d="M29.4879 60.2534H28.2064V61.5983H29.4879V60.2534Z" fill="black"/>
<path d="M41.034 58.9087H39.7524V60.2535H41.034V58.9087Z" fill="black"/>
<path d="M39.7494 58.9087H38.4679V60.2535H39.7494V58.9087Z" fill="black"/>
<path d="M38.4679 58.9087H37.1863V60.2535H38.4679V58.9087Z" fill="black"/>
<path d="M37.1863 58.9087H35.9048V60.2535H37.1863V58.9087Z" fill="black"/>
<path d="M35.9017 58.9087H34.6202V60.2535H35.9017V58.9087Z" fill="black"/>
<path d="M34.6202 58.9087H33.3386V60.2535H34.6202V58.9087Z" fill="black"/>
<path d="M33.3386 58.9087H32.0571V60.2535H33.3386V58.9087Z" fill="black"/>
<path d="M32.054 58.9087H30.7725V60.2535H32.054V58.9087Z" fill="black"/>
<path d="M30.7725 58.9087H29.4909V60.2535H30.7725V58.9087Z" fill="black"/>
<path d="M29.4879 58.9087H28.2064V60.2535H29.4879V58.9087Z" fill="black"/>
<path d="M41.034 57.564H39.7524V58.9088H41.034V57.564Z" fill="black"/>
<path d="M39.7494 57.564H38.4679V58.9088H39.7494V57.564Z" fill="black"/>
<path d="M38.4709 57.564H37.1863V58.9088H38.4709V57.564Z" fill="black"/>
<path d="M37.1863 57.564H35.9048V58.9088H37.1863V57.564Z" fill="black"/>
<path d="M35.9017 57.564H34.6202V58.9088H35.9017V57.564Z" fill="black"/>
<path d="M34.6202 57.564H33.3386V58.9088H34.6202V57.564Z" fill="black"/>
<path d="M33.3386 57.564H32.0571V58.9088H33.3386V57.564Z" fill="black"/>
<path d="M32.054 57.564H30.7725V58.9088H32.054V57.564Z" fill="black"/>
<path d="M30.7725 57.564H29.4909V58.9088H30.7725V57.564Z" fill="black"/>
<path d="M29.4879 57.564H28.2064V58.9088H29.4879V57.564Z" fill="black"/>
<path d="M28.2064 57.564H26.9248V58.9088H28.2064V57.564Z" fill="black"/>
<path d="M43.5971 56.2192H42.3156V57.5641H43.5971V56.2192Z" fill="black"/>
<path d="M41.034 56.2192H39.7524V57.5641H41.034V56.2192Z" fill="black"/>
<path d="M39.7524 56.2192H38.4709V57.5641H39.7524V56.2192Z" fill="black"/>
<path d="M37.1863 56.2192H35.9048V57.5641H37.1863V56.2192Z" fill="black"/>
<path d="M35.9017 56.2192H34.6202V57.5641H35.9017V56.2192Z" fill="black"/>
<path d="M34.6202 56.2192H33.3386V57.5641H34.6202V56.2192Z" fill="black"/>
<path d="M33.3386 56.2192H32.0571V57.5641H33.3386V56.2192Z" fill="black"/>
<path d="M32.054 56.2192H30.7725V57.5641H32.054V56.2192Z" fill="black"/>
<path d="M30.7725 56.2192H29.4909V57.5641H30.7725V56.2192Z" fill="black"/>
<path d="M29.4879 56.2192H28.2064V57.5641H29.4879V56.2192Z" fill="black"/>
<path d="M28.2064 56.2192H26.9248V57.5641H28.2064V56.2192Z" fill="black"/>
<path d="M26.9248 56.2192H25.6432V57.5641H26.9248V56.2192Z" fill="black"/>
<path d="M44.8817 54.874H43.6001V56.2189H44.8817V54.874Z" fill="black"/>
<path d="M43.5971 54.874H42.3156V56.2189H43.5971V54.874Z" fill="black"/>
<path d="M42.3156 54.874H41.034V56.2189H42.3156V54.874Z" fill="black"/>
<path d="M41.034 54.874H39.7524V56.2189H41.034V54.874Z" fill="black"/>
<path d="M39.7494 54.874H38.4679V56.2189H39.7494V54.874Z" fill="black"/>
<path d="M38.4709 56.2192H37.1863V57.5641H38.4709V56.2192Z" fill="white"/>
<path d="M38.4709 54.874H37.1863V56.2189H38.4709V54.874Z" fill="black"/>
<path d="M37.1863 54.874H35.9048V56.2189H37.1863V54.874Z" fill="black"/>
<path d="M35.9017 54.874H34.6202V56.2189H35.9017V54.874Z" fill="black"/>
<path d="M34.6202 54.874H33.3386V56.2189H34.6202V54.874Z" fill="black"/>
<path d="M33.3386 54.874H32.0571V56.2189H33.3386V54.874Z" fill="black"/>
<path d="M32.054 54.874H30.7725V56.2189H32.054V54.874Z" fill="black"/>
<path d="M30.7725 54.874H29.4909V56.2189H30.7725V54.874Z" fill="black"/>
<path d="M29.4879 54.874H28.2064V56.2189H29.4879V54.874Z" fill="black"/>
<path d="M28.2064 54.874H26.9248V56.2189H28.2064V54.874Z" fill="black"/>
<path d="M26.9248 54.874H25.6432V56.2189H26.9248V54.874Z" fill="black"/>
<path d="M46.1632 53.5264H44.8817V54.8712H46.1632V53.5264Z" fill="black"/>
<path d="M44.8817 53.5264H43.6001V54.8712H44.8817V53.5264Z" fill="black"/>
<path d="M43.5971 53.5264H42.3156V54.8712H43.5971V53.5264Z" fill="black"/>
<path d="M42.3156 53.5264H41.034V54.8712H42.3156V53.5264Z" fill="black"/>
<path d="M41.034 53.5264H39.7524V54.8712H41.034V53.5264Z" fill="black"/>
<path d="M39.7494 53.5264H38.4679V54.8712H39.7494V53.5264Z" fill="black"/>
<path d="M38.4679 53.5264H37.1863V54.8712H38.4679V53.5264Z" fill="black"/>
<path d="M37.1863 53.5264H35.9048V54.8742H37.1863V53.5264Z" fill="black"/>
<path d="M35.9017 53.5264H34.6202V54.8712H35.9017V53.5264Z" fill="black"/>
<path d="M34.6202 53.5264H33.3386V54.8712H34.6202V53.5264Z" fill="black"/>
<path d="M33.3386 53.5264H32.0571V54.8712H33.3386V53.5264Z" fill="black"/>
<path d="M32.054 53.5264H30.7725V54.8712H32.054V53.5264Z" fill="black"/>
<path d="M30.7725 53.5264H29.4909V54.8712H30.7725V53.5264Z" fill="black"/>
<path d="M29.4879 53.5264H28.2064V54.8712H29.4879V53.5264Z" fill="black"/>
<path d="M28.2064 53.5264H26.9248V54.8712H28.2064V53.5264Z" fill="black"/>
<path d="M26.9248 53.5264H25.6432V54.8712H26.9248V53.5264Z" fill="black"/>
<path d="M25.6402 53.5264H24.3587V54.8712H25.6402V53.5264Z" fill="black"/>
<path d="M47.4448 52.1816H46.1632V53.5265H47.4448V52.1816Z" fill="black"/>
<path d="M46.1632 52.1816H44.8817V53.5265H46.1632V52.1816Z" fill="black"/>
<path d="M44.8817 52.1816H43.6001V53.5265H44.8817V52.1816Z" fill="black"/>
<path d="M43.5971 52.1816H42.3156V53.5265H43.5971V52.1816Z" fill="black"/>
<path d="M42.3156 52.1816H41.034V53.5265H42.3156V52.1816Z" fill="black"/>
<path d="M41.034 52.1816H39.7524V53.5265H41.034V52.1816Z" fill="black"/>
<path d="M39.7524 52.1816H38.4709V53.5265H39.7524V52.1816Z" fill="black"/>
<path d="M38.4709 52.1816H37.1863V53.5265H38.4709V52.1816Z" fill="black"/>
<path d="M35.9048 52.1816H34.6232V53.5265H35.9048V52.1816Z" fill="black"/>
<path d="M34.6202 52.1816H33.3386V53.5265H34.6202V52.1816Z" fill="black"/>
<path d="M33.3386 52.1816H32.0571V53.5265H33.3386V52.1816Z" fill="black"/>
<path d="M32.054 52.1816H30.7725V53.5265H32.054V52.1816Z" fill="black"/>
<path d="M30.7725 52.1816H29.4909V53.5265H30.7725V52.1816Z" fill="black"/>
<path d="M29.4879 52.1816H28.2064V53.5265H29.4879V52.1816Z" fill="black"/>
<path d="M28.2064 52.1816H26.9248V53.5265H28.2064V52.1816Z" fill="black"/>
<path d="M26.9248 52.1816H25.6432V53.5265H26.9248V52.1816Z" fill="black"/>
<path d="M25.6402 52.1816H24.3587V53.5265H25.6402V52.1816Z" fill="black"/>
<path d="M48.7294 50.8364H47.4478V52.1813H48.7294V50.8364Z" fill="black"/>
<path d="M47.4448 50.8364H46.1632V52.1813H47.4448V50.8364Z" fill="black"/>
<path d="M46.1632 50.8364H44.8817V52.1813H46.1632V50.8364Z" fill="black"/>
<path d="M44.8817 50.8364H43.6001V52.1813H44.8817V50.8364Z" fill="black"/>
<path d="M43.6001 50.8364H42.3186V52.1813H43.6001V50.8364Z" fill="black"/>
<path d="M42.3186 50.8364H41.034V52.1813H42.3186V50.8364Z" fill="black"/>
<path d="M41.034 50.8364H39.7524V52.1813H41.034V50.8364Z" fill="black"/>
<path d="M37.1863 52.1816H35.9048V53.5265H37.1863V52.1816Z" fill="white"/>
<path d="M37.1863 50.8364H35.9048V52.1813H37.1863V50.8364Z" fill="black"/>
<path d="M35.9048 50.8364H34.6232V52.1813H35.9048V50.8364Z" fill="black"/>
<path d="M34.6202 50.8364H33.3386V52.1813H34.6202V50.8364Z" fill="black"/>
<path d="M33.3386 50.8364H32.0571V52.1813H33.3386V50.8364Z" fill="black"/>
<path d="M32.054 50.8364H30.7725V52.1813H32.054V50.8364Z" fill="black"/>
<path d="M30.7725 50.8364H29.4909V52.1813H30.7725V50.8364Z" fill="black"/>
<path d="M29.4879 50.8364H28.2064V52.1813H29.4879V50.8364Z" fill="black"/>
<path d="M28.2064 50.8364H26.9248V52.1813H28.2064V50.8364Z" fill="black"/>
<path d="M26.9248 50.8364H25.6432V52.1813H26.9248V50.8364Z" fill="black"/>
<path d="M25.6402 50.8364H24.3587V52.1813H25.6402V50.8364Z" fill="black"/>
<path d="M24.3587 50.8364H23.0771V52.1813H24.3587V50.8364Z" fill="black"/>
<path d="M46.1663 49.4917H44.8817V50.8365H46.1663V49.4917Z" fill="black"/>
<path d="M34.6232 49.4917H33.3386V50.8365H34.6232V49.4917Z" fill="black"/>
<path d="M33.3386 49.4917H32.0571V50.8365H33.3386V49.4917Z" fill="black"/>
<path d="M32.054 49.4917H30.7725V50.8365H32.054V49.4917Z" fill="black"/>
<path d="M30.7725 49.4917H29.4909V50.8365H30.7725V49.4917Z" fill="black"/>
<path d="M29.4879 49.4917H28.2064V50.8365H29.4879V49.4917Z" fill="black"/>
<path d="M28.2064 49.4917H26.9248V50.8365H28.2064V49.4917Z" fill="black"/>
<path d="M26.9248 49.4917H25.6432V50.8365H26.9248V49.4917Z" fill="black"/>
<path d="M25.6402 49.4917H24.3587V50.8365H25.6402V49.4917Z" fill="black"/>
<path d="M24.3587 49.4917H23.0771V50.8365H24.3587V49.4917Z" fill="black"/>
<path d="M23.0771 49.4917H21.7955V50.8365H23.0771V49.4917Z" fill="black"/>
<path d="M46.1663 48.147H44.8817V49.4918H46.1663V48.147Z" fill="black"/>
<path d="M33.3386 48.147H32.0571V49.4918H33.3386V48.147Z" fill="black"/>
<path d="M32.054 48.147H30.7725V49.4918H32.054V48.147Z" fill="black"/>
<path d="M30.7725 48.147H29.4909V49.4918H30.7725V48.147Z" fill="black"/>
<path d="M29.4879 48.147H28.2064V49.4918H29.4879V48.147Z" fill="black"/>
<path d="M28.2064 48.147H26.9248V49.4918H28.2064V48.147Z" fill="black"/>
<path d="M26.9248 48.147H25.6432V49.4918H26.9248V48.147Z" fill="black"/>
<path d="M25.6402 48.147H24.3587V49.4918H25.6402V48.147Z" fill="black"/>
<path d="M24.3587 48.147H23.0771V49.4918H24.3587V48.147Z" fill="black"/>
<path d="M23.0771 48.147H21.7955V49.4918H23.0771V48.147Z" fill="black"/>
<path d="M44.8817 46.7993H43.6001V48.1472H44.8817V46.7993Z" fill="black"/>
<path d="M33.3386 46.7993H32.0571V48.1472H33.3386V46.7993Z" fill="black"/>
<path d="M32.054 46.7993H30.7725V48.1442H32.054V46.7993Z" fill="black"/>
<path d="M30.7725 46.7993H29.4909V48.1442H30.7725V46.7993Z" fill="black"/>
<path d="M29.4879 46.7993H28.2064V48.1442H29.4879V46.7993Z" fill="black"/>
<path d="M28.2064 46.7993H26.9248V48.1442H28.2064V46.7993Z" fill="black"/>
<path d="M26.9248 46.7993H25.6432V48.1442H26.9248V46.7993Z" fill="black"/>
<path d="M25.6402 46.7993H24.3587V48.1442H25.6402V46.7993Z" fill="black"/>
<path d="M24.3587 46.7993H23.0771V48.1442H24.3587V46.7993Z" fill="black"/>
<path d="M23.0771 46.7993H21.7955V48.1442H23.0771V46.7993Z" fill="black"/>
<path d="M44.8817 45.4541H43.6001V46.7989H44.8817V45.4541Z" fill="black"/>
<path d="M41.034 45.4541H39.7524V46.7989H41.034V45.4541Z" fill="black"/>
<path d="M37.1863 45.4541H35.9048V46.7989H37.1863V45.4541Z" fill="black"/>
<path d="M33.3386 45.4541H32.0571V46.7989H33.3386V45.4541Z" fill="black"/>
<path d="M32.054 45.4541H30.7725V46.7989H32.054V45.4541Z" fill="black"/>
<path d="M30.7725 45.4541H29.4909V46.7989H30.7725V45.4541Z" fill="black"/>
<path d="M29.4879 45.4541H28.2064V46.7989H29.4879V45.4541Z" fill="black"/>
<path d="M28.2064 45.4541H26.9248V46.7989H28.2064V45.4541Z" fill="black"/>
<path d="M26.9248 45.4541H25.6432V46.7989H26.9248V45.4541Z" fill="black"/>
<path d="M25.6402 45.4541H24.3587V46.7989H25.6402V45.4541Z" fill="black"/>
<path d="M24.3587 45.4541H23.0771V46.7989H24.3587V45.4541Z" fill="black"/>
<path d="M23.0771 45.4541H21.7955V46.7989H23.0771V45.4541Z" fill="black"/>
<path d="M21.7925 45.4541H20.511V46.7989H21.7925V45.4541Z" fill="black"/>
<path d="M44.8817 44.1094H43.6001V45.4542H44.8817V44.1094Z" fill="black"/>
<path d="M43.6001 44.1094H42.3186V45.4542H43.6001V44.1094Z" fill="black"/>
<path d="M42.3186 44.1094H41.034V45.4542H42.3186V44.1094Z" fill="black"/>
<path d="M41.034 44.1094H39.7524V45.4542H41.034V44.1094Z" fill="black"/>
<path d="M37.1863 44.1094H35.9048V45.4542H37.1863V44.1094Z" fill="black"/>
<path d="M33.3386 44.1094H32.0571V45.4542H33.3386V44.1094Z" fill="black"/>
<path d="M32.0571 44.1094H30.7725V45.4542H32.0571V44.1094Z" fill="black"/>
<path d="M30.7725 44.1094H29.4909V45.4542H30.7725V44.1094Z" fill="black"/>
<path d="M29.4879 44.1094H28.2064V45.4542H29.4879V44.1094Z" fill="black"/>
<path d="M28.2064 44.1094H26.9248V45.4542H28.2064V44.1094Z" fill="black"/>
<path d="M26.9248 44.1094H25.6432V45.4542H26.9248V44.1094Z" fill="black"/>
<path d="M25.6402 44.1094H24.3587V45.4542H25.6402V44.1094Z" fill="black"/>
<path d="M24.3587 44.1094H23.0771V45.4542H24.3587V44.1094Z" fill="black"/>
<path d="M23.0771 44.1094H21.7955V45.4542H23.0771V44.1094Z" fill="black"/>
<path d="M21.7925 44.1094H20.511V45.4542H21.7925V44.1094Z" fill="black"/>
<path d="M20.511 44.1094H19.2294V45.4542H20.511V44.1094Z" fill="black"/>
<path d="M43.5971 42.7646H42.3156V44.1095H43.5971V42.7646Z" fill="black"/>
<path d="M42.3186 42.7646H41.034V44.1095H42.3186V42.7646Z" fill="black"/>
<path d="M30.7725 42.7646H29.4909V44.1095H30.7725V42.7646Z" fill="black"/>
<path d="M29.4879 42.7646H28.2064V44.1095H29.4879V42.7646Z" fill="black"/>
<path d="M28.2064 42.7646H26.9248V44.1095H28.2064V42.7646Z" fill="black"/>
<path d="M26.9248 42.7646H25.6432V44.1095H26.9248V42.7646Z" fill="black"/>
<path d="M25.6402 42.7646H24.3587V44.1095H25.6402V42.7646Z" fill="black"/>
<path d="M24.3587 42.7646H23.0771V44.1095H24.3587V42.7646Z" fill="black"/>
<path d="M23.0771 42.7646H21.7955V44.1095H23.0771V42.7646Z" fill="black"/>
<path d="M21.7925 42.7646H20.511V44.1095H21.7925V42.7646Z" fill="black"/>
<path d="M20.511 42.7646H19.2294V44.1095H20.511V42.7646Z" fill="black"/>
<path d="M42.3186 41.4199H41.034V42.7648H42.3186V41.4199Z" fill="black"/>
<path d="M30.7725 41.4199H29.4909V42.7648H30.7725V41.4199Z" fill="black"/>
<path d="M29.4879 41.4199H28.2064V42.7648H29.4879V41.4199Z" fill="black"/>
<path d="M28.2064 41.4199H26.9248V42.7648H28.2064V41.4199Z" fill="black"/>
<path d="M26.9248 41.4199H25.6432V42.7648H26.9248V41.4199Z" fill="black"/>
<path d="M25.6402 41.4199H24.3587V42.7648H25.6402V41.4199Z" fill="black"/>
<path d="M24.3587 41.4199H23.0771V42.7648H24.3587V41.4199Z" fill="black"/>
<path d="M23.0771 41.4199H21.7955V42.7648H23.0771V41.4199Z" fill="black"/>
<path d="M21.7925 41.4199H20.511V42.7648H21.7925V41.4199Z" fill="black"/>
<path d="M20.511 41.4199H19.2294V42.7648H20.511V41.4199Z" fill="black"/>
<path d="M19.2294 41.4199H17.9478V42.7648H19.2294V41.4199Z" fill="black"/>
<path d="M41.034 40.0718H39.7524V41.4196H41.034V40.0718Z" fill="black"/>
<path d="M38.4709 40.0718H37.1863V41.4196H38.4709V40.0718Z" fill="black"/>
<path d="M34.6232 40.0718H33.3386V41.4196H34.6232V40.0718Z" fill="black"/>
<path d="M30.7725 40.0718H29.4909V41.4196H30.7725V40.0718Z" fill="black"/>
<path d="M29.4879 40.0718H28.2064V41.4166H29.4879V40.0718Z" fill="black"/>
<path d="M28.2064 40.0718H26.9248V41.4166H28.2064V40.0718Z" fill="black"/>
<path d="M26.9248 40.0718H25.6432V41.4166H26.9248V40.0718Z" fill="black"/>
<path d="M25.6402 40.0718H24.3587V41.4166H25.6402V40.0718Z" fill="black"/>
<path d="M24.3587 40.0718H23.0771V41.4166H24.3587V40.0718Z" fill="black"/>
<path d="M23.0771 40.0718H21.7955V41.4166H23.0771V40.0718Z" fill="black"/>
<path d="M21.7925 40.0718H20.511V41.4166H21.7925V40.0718Z" fill="black"/>
<path d="M20.511 40.0718H19.2294V41.4166H20.511V40.0718Z" fill="black"/>
<path d="M19.2294 40.0718H17.9478V41.4166H19.2294V40.0718Z" fill="black"/>
<path d="M41.034 38.7271H39.7524V40.0719H41.034V38.7271Z" fill="black"/>
<path d="M29.4909 38.7271H28.2094V40.0719H29.4909V38.7271Z" fill="black"/>
<path d="M28.2064 38.7271H26.9248V40.0719H28.2064V38.7271Z" fill="black"/>
<path d="M26.9248 38.7271H25.6432V40.0719H26.9248V38.7271Z" fill="black"/>
<path d="M25.6402 38.7271H24.3587V40.0719H25.6402V38.7271Z" fill="black"/>
<path d="M24.3587 38.7271H23.0771V40.0719H24.3587V38.7271Z" fill="black"/>
<path d="M23.0771 38.7271H21.7955V40.0719H23.0771V38.7271Z" fill="black"/>
<path d="M21.7925 38.7271H20.511V40.0719H21.7925V38.7271Z" fill="black"/>
<path d="M20.511 38.7271H19.2294V40.0719H20.511V38.7271Z" fill="black"/>
<path d="M19.2294 38.7271H17.9478V40.0719H19.2294V38.7271Z" fill="black"/>
<path d="M41.034 37.3823H39.7524V38.7272H41.034V37.3823Z" fill="black"/>
<path d="M39.7524 37.3823H38.4709V38.7272H39.7524V37.3823Z" fill="black"/>
<path d="M28.2094 37.3823H26.9248V38.7272H28.2094V37.3823Z" fill="black"/>
<path d="M26.9248 37.3823H25.6432V38.7272H26.9248V37.3823Z" fill="black"/>
<path d="M25.6402 37.3823H24.3587V38.7272H25.6402V37.3823Z" fill="black"/>
<path d="M24.3587 37.3823H23.0771V38.7272H24.3587V37.3823Z" fill="black"/>
<path d="M23.0771 37.3823H21.7955V38.7272H23.0771V37.3823Z" fill="black"/>
<path d="M21.7925 37.3823H20.511V38.7272H21.7925V37.3823Z" fill="black"/>
<path d="M20.511 37.3823H19.2294V38.7272H20.511V37.3823Z" fill="black"/>
<path d="M19.2294 37.3823H17.9478V38.7272H19.2294V37.3823Z" fill="black"/>
<path d="M17.9448 37.3823H16.6633V38.7272H17.9448V37.3823Z" fill="black"/>
<path d="M39.7494 36.0376H38.4679V37.3824H39.7494V36.0376Z" fill="black"/>
<path d="M38.4709 36.0376H37.1863V37.3824H38.4709V36.0376Z" fill="black"/>
<path d="M37.1863 36.0376H35.9048V37.3824H37.1863V36.0376Z" fill="black"/>
<path d="M33.3386 36.0376H32.0571V37.3824H33.3386V36.0376Z" fill="black"/>
<path d="M29.4909 36.0376H28.2094V37.3824H29.4909V36.0376Z" fill="black"/>
<path d="M28.2094 36.0376H26.9248V37.3824H28.2094V36.0376Z" fill="black"/>
<path d="M26.9248 36.0376H25.6432V37.3824H26.9248V36.0376Z" fill="black"/>
<path d="M25.6402 36.0376H24.3587V37.3824H25.6402V36.0376Z" fill="black"/>
<path d="M24.3587 36.0376H23.0771V37.3824H24.3587V36.0376Z" fill="black"/>
<path d="M23.0771 36.0376H21.7955V37.3824H23.0771V36.0376Z" fill="black"/>
<path d="M21.7925 36.0376H20.511V37.3824H21.7925V36.0376Z" fill="black"/>
<path d="M20.511 36.0376H19.2294V37.3824H20.511V36.0376Z" fill="black"/>
<path d="M19.2294 36.0376H17.9478V37.3824H19.2294V36.0376Z" fill="black"/>
<path d="M17.9448 36.0376H16.6633V37.3824H17.9448V36.0376Z" fill="black"/>
<path d="M16.6633 36.0376H15.3817V37.3824H16.6633V36.0376Z" fill="black"/>
<path d="M39.7494 34.6924H38.4679V36.0372H39.7494V34.6924Z" fill="black"/>
<path d="M38.4709 34.6924H37.1863V36.0372H38.4709V34.6924Z" fill="black"/>
<path d="M26.9248 34.6924H25.6432V36.0372H26.9248V34.6924Z" fill="black"/>
<path d="M25.6402 34.6924H24.3587V36.0372H25.6402V34.6924Z" fill="black"/>
<path d="M24.3587 34.6924H23.0771V36.0372H24.3587V34.6924Z" fill="black"/>
<path d="M23.0771 34.6924H21.7955V36.0372H23.0771V34.6924Z" fill="black"/>
<path d="M21.7925 34.6924H20.511V36.0372H21.7925V34.6924Z" fill="black"/>
<path d="M20.511 34.6924H19.2294V36.0372H20.511V34.6924Z" fill="black"/>
<path d="M19.2294 34.6924H17.9478V36.0372H19.2294V34.6924Z" fill="black"/>
<path d="M17.9448 34.6924H16.6633V36.0372H17.9448V34.6924Z" fill="black"/>
<path d="M16.6633 34.6924H15.3817V36.0372H16.6633V34.6924Z" fill="black"/>
<path d="M38.4709 33.3447H37.1863V34.6926H38.4709V33.3447Z" fill="black"/>
<path d="M25.6433 33.3447H24.3617V34.6926H25.6433V33.3447Z" fill="black"/>
<path d="M24.3587 33.3447H23.0771V34.6896H24.3587V33.3447Z" fill="black"/>
<path d="M23.0771 33.3447H21.7955V34.6896H23.0771V33.3447Z" fill="black"/>
<path d="M21.7925 33.3447H20.511V34.6896H21.7925V33.3447Z" fill="black"/>
<path d="M20.511 33.3447H19.2294V34.6896H20.511V33.3447Z" fill="black"/>
<path d="M19.2294 33.3447H17.9478V34.6896H19.2294V33.3447Z" fill="black"/>
<path d="M17.9448 33.3447H16.6633V34.6896H17.9448V33.3447Z" fill="black"/>
<path d="M16.6633 33.3447H15.3817V34.6896H16.6633V33.3447Z" fill="black"/>
<path d="M15.3817 33.3447H14.1002V34.6896H15.3817V33.3447Z" fill="black"/>
<path d="M5.12021 33.3447H3.83865V34.6896H5.12021V33.3447Z" fill="black"/>
<path d="M37.1863 32H35.9048V33.3448H37.1863V32Z" fill="black"/>
<path d="M34.6232 32H33.3386V33.3448H34.6232V32Z" fill="black"/>
<path d="M30.7725 32H29.4909V33.3448H30.7725V32Z" fill="black"/>
<path d="M26.9248 32H25.6432V33.3448H26.9248V32Z" fill="black"/>
<path d="M25.6402 32H24.3587V33.3448H25.6402V32Z" fill="black"/>
<path d="M24.3587 32H23.0771V33.3448H24.3587V32Z" fill="black"/>
<path d="M23.0771 32H21.7955V33.3448H23.0771V32Z" fill="black"/>
<path d="M21.7925 32H20.511V33.3448H21.7925V32Z" fill="black"/>
<path d="M20.511 32H19.2294V33.3448H20.511V32Z" fill="black"/>
<path d="M19.2294 32H17.9478V33.3448H19.2294V32Z" fill="black"/>
<path d="M17.9448 32H16.6633V33.3448H17.9448V32Z" fill="black"/>
<path d="M16.6633 32H15.3817V33.3448H16.6633V32Z" fill="black"/>
<path d="M15.3817 32H14.1002V33.3448H15.3817V32Z" fill="black"/>
<path d="M11.534 32H10.2525V33.3448H11.534V32Z" fill="black"/>
<path d="M10.2495 32H8.9679V33.3448H10.2495V32Z" fill="black"/>
<path d="M8.9679 32H7.68634V33.3448H8.9679V32Z" fill="black"/>
<path d="M7.68332 32H6.40176V33.3448H7.68332V32Z" fill="black"/>
<path d="M6.40177 32H5.12021V33.3448H6.40177V32Z" fill="black"/>
<path d="M5.12021 32H3.83865V33.3448H5.12021V32Z" fill="black"/>
<path d="M3.83564 32H2.55408V33.3448H3.83564V32Z" fill="black"/>
<path d="M37.1863 30.6548H35.9048V31.9996H37.1863V30.6548Z" fill="black"/>
<path d="M35.9048 30.6548H34.6232V31.9996H35.9048V30.6548Z" fill="black"/>
<path d="M33.3386 30.6548H32.0571V31.9996H33.3386V30.6548Z" fill="black"/>
<path d="M29.4909 30.6548H28.2094V31.9996H29.4909V30.6548Z" fill="black"/>
<path d="M25.6433 30.6548H24.3617V31.9996H25.6433V30.6548Z" fill="black"/>
<path d="M24.3587 30.6548H23.0771V31.9996H24.3587V30.6548Z" fill="black"/>
<path d="M23.0771 30.6548H21.7955V31.9996H23.0771V30.6548Z" fill="black"/>
<path d="M21.7925 30.6548H20.511V31.9996H21.7925V30.6548Z" fill="black"/>
<path d="M20.511 30.6548H19.2294V31.9996H20.511V30.6548Z" fill="black"/>
<path d="M19.2294 30.6548H17.9478V31.9996H19.2294V30.6548Z" fill="black"/>
<path d="M17.9448 30.6548H16.6633V31.9996H17.9448V30.6548Z" fill="black"/>
<path d="M16.6633 30.6548H15.3817V31.9996H16.6633V30.6548Z" fill="black"/>
<path d="M15.3817 30.6548H14.1002V31.9996H15.3817V30.6548Z" fill="black"/>
<path d="M14.0971 30.6548H12.8156V31.9996H14.0971V30.6548Z" fill="black"/>
<path d="M12.8156 30.6548H11.534V31.9996H12.8156V30.6548Z" fill="black"/>
<path d="M11.534 30.6548H10.2525V31.9996H11.534V30.6548Z" fill="black"/>
<path d="M10.2525 30.6548H8.97092V31.9996H10.2525V30.6548Z" fill="black"/>
<path d="M8.9679 30.6548H7.68634V31.9996H8.9679V30.6548Z" fill="black"/>
<path d="M7.68332 30.6548H6.40176V31.9996H7.68332V30.6548Z" fill="black"/>
<path d="M6.40478 30.6548H5.12021V31.9996H6.40478V30.6548Z" fill="black"/>
<path d="M5.12021 30.6548H3.83865V31.9996H5.12021V30.6548Z" fill="black"/>
<path d="M3.83564 30.6548H2.55408V31.9996H3.83564V30.6548Z" fill="black"/>
<path d="M35.9048 29.3101H34.6232V30.6549H35.9048V29.3101Z" fill="black"/>
<path d="M24.3617 29.3101H23.0771V30.6549H24.3617V29.3101Z" fill="black"/>
<path d="M23.0771 29.3101H21.7955V30.6549H23.0771V29.3101Z" fill="black"/>
<path d="M21.7925 29.3101H20.511V30.6549H21.7925V29.3101Z" fill="black"/>
<path d="M20.511 29.3101H19.2294V30.6549H20.511V29.3101Z" fill="black"/>
<path d="M19.2294 29.3101H17.9478V30.6549H19.2294V29.3101Z" fill="black"/>
<path d="M17.9448 29.3101H16.6633V30.6549H17.9448V29.3101Z" fill="black"/>
<path d="M16.6633 29.3101H15.3817V30.6549H16.6633V29.3101Z" fill="black"/>
<path d="M15.3817 29.3101H14.1002V30.6549H15.3817V29.3101Z" fill="black"/>
<path d="M14.0971 29.3101H12.8156V30.6549H14.0971V29.3101Z" fill="black"/>
<path d="M12.8156 29.3101H11.534V30.6549H12.8156V29.3101Z" fill="black"/>
<path d="M11.534 29.3101H10.2525V30.6549H11.534V29.3101Z" fill="black"/>
<path d="M8.97091 29.3101H7.68634V30.6549H8.97091V29.3101Z" fill="black"/>
<path d="M7.68634 29.3101H6.40479V30.6549H7.68634V29.3101Z" fill="black"/>
<path d="M5.12021 29.3101H3.83865V30.6549H5.12021V29.3101Z" fill="black"/>
<path d="M35.9017 27.9653H34.6202V29.3102H35.9017V27.9653Z" fill="black"/>
<path d="M34.6232 27.9653H33.3386V29.3102H34.6232V27.9653Z" fill="black"/>
<path d="M23.0771 27.9653H21.7955V29.3102H23.0771V27.9653Z" fill="black"/>
<path d="M21.7925 27.9653H20.511V29.3102H21.7925V27.9653Z" fill="black"/>
<path d="M20.511 27.9653H19.2294V29.3102H20.511V27.9653Z" fill="black"/>
<path d="M19.2294 27.9653H17.9478V29.3102H19.2294V27.9653Z" fill="black"/>
<path d="M17.9448 27.9653H16.6633V29.3102H17.9448V27.9653Z" fill="black"/>
<path d="M16.6633 27.9653H15.3817V29.3102H16.6633V27.9653Z" fill="black"/>
<path d="M15.3817 27.9653H14.1002V29.3102H15.3817V27.9653Z" fill="black"/>
<path d="M14.0971 27.9653H12.8156V29.3102H14.0971V27.9653Z" fill="black"/>
<path d="M12.8156 27.9653H11.534V29.3102H12.8156V27.9653Z" fill="black"/>
<path d="M11.534 27.9653H10.2525V29.3102H11.534V27.9653Z" fill="black"/>
<path d="M10.2525 29.3101H8.97092V30.6549H10.2525V29.3101Z" fill="white"/>
<path d="M10.2525 27.9653H8.97092V29.3102H10.2525V27.9653Z" fill="black"/>
<path d="M8.9679 27.9653H7.68634V29.3102H8.9679V27.9653Z" fill="black"/>
<path d="M7.68332 27.9653H6.40176V29.3102H7.68332V27.9653Z" fill="black"/>
<path d="M6.40478 29.3101H5.12021V30.6549H6.40478V29.3101Z" fill="white"/>
<path d="M6.40478 27.9653H5.12021V29.3102H6.40478V27.9653Z" fill="black"/>
<path d="M5.12021 27.9653H3.83865V29.3102H5.12021V27.9653Z" fill="black"/>
<path d="M37.1863 26.6177H35.9048V27.9625H37.1863V26.6177Z" fill="black"/>
<path d="M35.9017 26.6177H34.6202V27.9625H35.9017V26.6177Z" fill="black"/>
<path d="M34.6232 26.6177H33.3386V27.9655H34.6232V26.6177Z" fill="black"/>
<path d="M23.0771 26.6177H21.7955V27.9655H23.0771V26.6177Z" fill="black"/>
<path d="M21.7925 26.6177H20.511V27.9625H21.7925V26.6177Z" fill="black"/>
<path d="M20.511 26.6177H19.2294V27.9625H20.511V26.6177Z" fill="black"/>
<path d="M19.2294 26.6177H17.9478V27.9655H19.2294V26.6177Z" fill="black"/>
<path d="M17.9448 26.6177H16.6633V27.9625H17.9448V26.6177Z" fill="black"/>
<path d="M16.6633 26.6177H15.3817V27.9625H16.6633V26.6177Z" fill="black"/>
<path d="M15.3817 26.6177H14.1002V27.9625H15.3817V26.6177Z" fill="black"/>
<path d="M14.0971 26.6177H12.8156V27.9625H14.0971V26.6177Z" fill="black"/>
<path d="M12.8156 26.6177H11.534V27.9625H12.8156V26.6177Z" fill="black"/>
<path d="M11.534 26.6177H10.2525V27.9625H11.534V26.6177Z" fill="black"/>
<path d="M10.2495 26.6177H8.9679V27.9625H10.2495V26.6177Z" fill="black"/>
<path d="M8.9679 26.6177H7.68634V27.9625H8.9679V26.6177Z" fill="black"/>
<path d="M7.68634 26.6177H6.40479V27.9655H7.68634V26.6177Z" fill="black"/>
<path d="M6.40177 26.6177H5.12021V27.9625H6.40177V26.6177Z" fill="black"/>
<path d="M5.12021 26.6177H3.83865V27.9625H5.12021V26.6177Z" fill="black"/>
<path d="M37.1863 25.2725H35.9048V26.6173H37.1863V25.2725Z" fill="black"/>
<path d="M35.9048 25.2725H34.6232V26.6173H35.9048V25.2725Z" fill="black"/>
<path d="M21.7955 25.2725H20.514V26.6173H21.7955V25.2725Z" fill="black"/>
<path d="M20.514 25.2725H19.2294V26.6173H20.514V25.2725Z" fill="black"/>
<path d="M17.9478 25.2725H16.6663V26.6173H17.9478V25.2725Z" fill="black"/>
<path d="M16.6663 25.2725H15.3817V26.6173H16.6663V25.2725Z" fill="black"/>
<path d="M15.3817 25.2725H14.1002V26.6173H15.3817V25.2725Z" fill="black"/>
<path d="M14.1002 25.2725H12.8186V26.6173H14.1002V25.2725Z" fill="black"/>
<path d="M12.8156 25.2725H11.534V26.6173H12.8156V25.2725Z" fill="black"/>
<path d="M11.534 25.2725H10.2525V26.6173H11.534V25.2725Z" fill="black"/>
<path d="M10.2495 25.2725H8.9679V26.6173H10.2495V25.2725Z" fill="black"/>
<path d="M8.97091 25.2725H7.68634V26.6173H8.97091V25.2725Z" fill="black"/>
<path d="M6.40478 25.2725H5.12021V26.6173H6.40478V25.2725Z" fill="black"/>
<path d="M5.12021 25.2725H3.83865V26.6173H5.12021V25.2725Z" fill="black"/>
<path d="M41.034 23.9277H39.7524V25.2726H41.034V23.9277Z" fill="black"/>
<path d="M39.7494 23.9277H38.4679V25.2726H39.7494V23.9277Z" fill="black"/>
<path d="M38.4679 23.9277H37.1863V25.2726H38.4679V23.9277Z" fill="black"/>
<path d="M37.1863 23.9277H35.9048V25.2726H37.1863V23.9277Z" fill="black"/>
<path d="M35.9017 23.9277H34.6202V25.2726H35.9017V23.9277Z" fill="black"/>
<path d="M34.6232 23.9277H33.3386V25.2726H34.6232V23.9277Z" fill="black"/>
<path d="M33.3386 23.9277H32.0571V25.2726H33.3386V23.9277Z" fill="black"/>
<path d="M20.514 23.9277H19.2294V25.2726H20.514V23.9277Z" fill="black"/>
<path d="M19.2294 25.2725H17.9478V26.6173H19.2294V25.2725Z" fill="white"/>
<path d="M19.2294 23.9277H17.9478V25.2726H19.2294V23.9277Z" fill="black"/>
<path d="M17.9478 23.9277H16.6663V25.2726H17.9478V23.9277Z" fill="black"/>
<path d="M12.8186 23.9277H11.534V25.2726H12.8186V23.9277Z" fill="black"/>
<path d="M11.534 23.9277H10.2525V25.2726H11.534V23.9277Z" fill="black"/>
<path d="M10.2495 23.9277H8.9679V25.2726H10.2495V23.9277Z" fill="black"/>
<path d="M8.9679 23.9277H7.68634V25.2726H8.9679V23.9277Z" fill="black"/>
<path d="M7.68634 25.2725H6.40479V26.6173H7.68634V25.2725Z" fill="white"/>
<path d="M7.68634 23.9277H6.40479V25.2726H7.68634V23.9277Z" fill="black"/>
<path d="M6.40177 23.9277H5.12021V25.2726H6.40177V23.9277Z" fill="black"/>
<path d="M41.034 22.583H39.7524V23.9278H41.034V22.583Z" fill="black"/>
<path d="M39.7494 22.583H38.4679V23.9278H39.7494V22.583Z" fill="black"/>
<path d="M38.4679 22.583H37.1863V23.9278H38.4679V22.583Z" fill="black"/>
<path d="M37.1863 22.583H35.9048V23.9278H37.1863V22.583Z" fill="black"/>
<path d="M35.9017 22.583H34.6202V23.9278H35.9017V22.583Z" fill="black"/>
<path d="M34.6202 22.583H33.3386V23.9278H34.6202V22.583Z" fill="black"/>
<path d="M33.3386 22.583H32.0571V23.9278H33.3386V22.583Z" fill="black"/>
<path d="M32.0571 22.583H30.7725V23.9278H32.0571V22.583Z" fill="black"/>
<path d="M29.4909 22.583H28.2094V23.9278H29.4909V22.583Z" fill="black"/>
<path d="M25.6433 22.583H24.3617V23.9278H25.6433V22.583Z" fill="black"/>
<path d="M21.7955 22.583H20.514V23.9278H21.7955V22.583Z" fill="black"/>
<path d="M17.9478 22.583H16.6663V23.9278H17.9478V22.583Z" fill="black"/>
<path d="M14.1002 22.583H12.8186V23.9278H14.1002V22.583Z" fill="black"/>
<path d="M12.8156 22.583H11.534V23.9278H12.8156V22.583Z" fill="black"/>
<path d="M11.534 22.583H10.2525V23.9278H11.534V22.583Z" fill="black"/>
<path d="M10.2495 22.583H8.9679V23.9278H10.2495V22.583Z" fill="black"/>
<path d="M8.9679 22.583H7.68634V23.9278H8.9679V22.583Z" fill="black"/>
<path d="M7.68332 22.583H6.40176V23.9278H7.68332V22.583Z" fill="black"/>
<path d="M6.40177 22.583H5.12021V23.9278H6.40177V22.583Z" fill="black"/>
<path d="M43.5971 21.2383H42.3156V22.5831H43.5971V21.2383Z" fill="black"/>
<path d="M42.3156 21.2383H41.034V22.5831H42.3156V21.2383Z" fill="black"/>
<path d="M41.034 21.2383H39.7524V22.5831H41.034V21.2383Z" fill="black"/>
<path d="M39.7494 21.2383H38.4679V22.5831H39.7494V21.2383Z" fill="black"/>
<path d="M38.4679 21.2383H37.1863V22.5831H38.4679V21.2383Z" fill="black"/>
<path d="M37.1863 21.2383H35.9048V22.5831H37.1863V21.2383Z" fill="black"/>
<path d="M35.9048 21.2383H34.6232V22.5831H35.9048V21.2383Z" fill="black"/>
<path d="M34.6232 21.2383H33.3386V22.5831H34.6232V21.2383Z" fill="black"/>
<path d="M33.3386 21.2383H32.0571V22.5831H33.3386V21.2383Z" fill="black"/>
<path d="M29.4909 21.2383H28.2094V22.5831H29.4909V21.2383Z" fill="black"/>
<path d="M25.6433 21.2383H24.3617V22.5831H25.6433V21.2383Z" fill="black"/>
<path d="M21.7955 21.2383H20.514V22.5831H21.7955V21.2383Z" fill="black"/>
<path d="M17.9478 21.2383H16.6663V22.5831H17.9478V21.2383Z" fill="black"/>
<path d="M14.1002 21.2383H12.8186V22.5831H14.1002V21.2383Z" fill="black"/>
<path d="M12.8156 21.2383H11.534V22.5831H12.8156V21.2383Z" fill="black"/>
<path d="M11.534 21.2383H10.2525V22.5831H11.534V21.2383Z" fill="black"/>
<path d="M10.2495 21.2383H8.9679V22.5831H10.2495V21.2383Z" fill="black"/>
<path d="M8.9679 21.2383H7.68634V22.5831H8.9679V21.2383Z" fill="black"/>
<path d="M7.68332 21.2383H6.40176V22.5831H7.68332V21.2383Z" fill="black"/>
<path d="M6.40177 21.2383H5.12021V22.5831H6.40177V21.2383Z" fill="black"/>
<path d="M41.034 19.8901H39.7524V21.235H41.034V19.8901Z" fill="black"/>
<path d="M39.7494 19.8901H38.4679V21.235H39.7494V19.8901Z" fill="black"/>
<path d="M38.4709 19.8901H37.1863V21.238H38.4709V19.8901Z" fill="black"/>
<path d="M12.8186 19.8901H11.534V21.238H12.8186V19.8901Z" fill="black"/>
<path d="M11.534 19.8901H10.2525V21.235H11.534V19.8901Z" fill="black"/>
<path d="M10.2495 19.8901H8.9679V21.235H10.2495V19.8901Z" fill="black"/>
<path d="M8.9679 19.8901H7.68634V21.235H8.9679V19.8901Z" fill="black"/>
<path d="M7.68332 19.8901H6.40176V21.235H7.68332V19.8901Z" fill="black"/>
<path d="M6.40177 19.8901H5.12021V21.235H6.40177V19.8901Z" fill="black"/>
<path d="M41.034 18.5454H39.7524V19.8903H41.034V18.5454Z" fill="black"/>
<path d="M39.7494 18.5454H38.4679V19.8903H39.7494V18.5454Z" fill="black"/>
<path d="M38.4709 18.5454H37.1863V19.8903H38.4709V18.5454Z" fill="black"/>
<path d="M14.1002 18.5454H12.8186V19.8903H14.1002V18.5454Z" fill="black"/>
<path d="M12.8156 18.5454H11.534V19.8903H12.8156V18.5454Z" fill="black"/>
<path d="M11.534 18.5454H10.2525V19.8903H11.534V18.5454Z" fill="black"/>
<path d="M10.2495 18.5454H8.9679V19.8903H10.2495V18.5454Z" fill="black"/>
<path d="M8.9679 18.5454H7.68634V19.8903H8.9679V18.5454Z" fill="black"/>
<path d="M7.68332 18.5454H6.40176V19.8903H7.68332V18.5454Z" fill="black"/>
<path d="M6.40177 18.5454H5.12021V19.8903H6.40177V18.5454Z" fill="black"/>
<path d="M37.1863 17.2007H35.9048V18.5455H37.1863V17.2007Z" fill="black"/>
<path d="M34.6232 17.2007H33.3386V18.5455H34.6232V17.2007Z" fill="black"/>
<path d="M30.7725 17.2007H29.4909V18.5455H30.7725V17.2007Z" fill="black"/>
<path d="M26.9248 17.2007H25.6432V18.5455H26.9248V17.2007Z" fill="black"/>
<path d="M23.0771 17.2007H21.7955V18.5455H23.0771V17.2007Z" fill="black"/>
<path d="M19.2294 17.2007H17.9478V18.5455H19.2294V17.2007Z" fill="black"/>
<path d="M15.3817 17.2007H14.1002V18.5455H15.3817V17.2007Z" fill="black"/>
<path d="M14.0971 17.2007H12.8156V18.5455H14.0971V17.2007Z" fill="black"/>
<path d="M12.8156 17.2007H11.534V18.5455H12.8156V17.2007Z" fill="black"/>
<path d="M11.534 17.2007H10.2525V18.5455H11.534V17.2007Z" fill="black"/>
<path d="M10.2495 17.2007H8.9679V18.5455H10.2495V17.2007Z" fill="black"/>
<path d="M8.9679 17.2007H7.68634V18.5455H8.9679V17.2007Z" fill="black"/>
<path d="M7.68332 17.2007H6.40176V18.5455H7.68332V17.2007Z" fill="black"/>
<path d="M37.1863 15.856H35.9048V17.2008H37.1863V15.856Z" fill="black"/>
<path d="M35.9048 15.856H34.6232V17.2008H35.9048V15.856Z" fill="black"/>
<path d="M34.6232 15.856H33.3386V17.2008H34.6232V15.856Z" fill="black"/>
<path d="M14.1002 15.856H12.8186V17.2008H14.1002V15.856Z" fill="black"/>
<path d="M12.8156 15.856H11.534V17.2008H12.8156V15.856Z" fill="black"/>
<path d="M11.534 15.856H10.2525V17.2008H11.534V15.856Z" fill="black"/>
<path d="M10.2525 15.856H8.97092V17.2008H10.2525V15.856Z" fill="black"/>
<path d="M8.9679 15.856H7.68634V17.2008H8.9679V15.856Z" fill="black"/>
<path d="M7.68332 15.856H6.40176V17.2008H7.68332V15.856Z" fill="black"/>
<path d="M33.3386 14.5107H32.0571V15.8556H33.3386V14.5107Z" fill="black"/>
<path d="M32.0571 14.5107H30.7725V15.8556H32.0571V14.5107Z" fill="black"/>
<path d="M14.1002 14.5107H12.8186V15.8556H14.1002V14.5107Z" fill="black"/>
<path d="M12.8156 14.5107H11.534V15.8556H12.8156V14.5107Z" fill="black"/>
<path d="M11.534 14.5107H10.2525V15.8556H11.534V14.5107Z" fill="black"/>
<path d="M8.97091 14.5107H7.68634V15.8556H8.97091V14.5107Z" fill="black"/>
<path d="M7.68332 14.5107H6.40176V15.8556H7.68332V14.5107Z" fill="black"/>
<path d="M33.3386 13.1631H32.0571V14.5079H33.3386V13.1631Z" fill="black"/>
<path d="M32.054 13.1631H30.7725V14.5079H32.054V13.1631Z" fill="black"/>
<path d="M30.7725 13.1631H29.4909V14.5109H30.7725V13.1631Z" fill="black"/>
<path d="M29.4909 13.1631H28.2094V14.5109H29.4909V13.1631Z" fill="black"/>
<path d="M25.6433 13.1631H24.3617V14.5109H25.6433V13.1631Z" fill="black"/>
<path d="M21.7955 13.1631H20.514V14.5109H21.7955V13.1631Z" fill="black"/>
<path d="M17.9478 13.1631H16.6663V14.5109H17.9478V13.1631Z" fill="black"/>
<path d="M14.1002 13.1631H12.8186V14.5109H14.1002V13.1631Z" fill="black"/>
<path d="M12.8156 13.1631H11.534V14.5079H12.8156V13.1631Z" fill="black"/>
<path d="M11.534 13.1631H10.2525V14.5079H11.534V13.1631Z" fill="black"/>
<path d="M10.2525 14.5107H8.97092V15.8556H10.2525V14.5107Z" fill="white"/>
<path d="M10.2525 13.1631H8.97092V14.5109H10.2525V13.1631Z" fill="black"/>
<path d="M8.9679 13.1631H7.68634V14.5079H8.9679V13.1631Z" fill="black"/>
<path d="M7.68332 13.1631H6.40176V14.5079H7.68332V13.1631Z" fill="black"/>
<path d="M29.4879 11.8184H28.2064V13.1632H29.4879V11.8184Z" fill="black"/>
<path d="M28.2094 11.8184H26.9248V13.1632H28.2094V11.8184Z" fill="black"/>
<path d="M14.1002 11.8184H12.8186V13.1632H14.1002V11.8184Z" fill="black"/>
<path d="M12.8156 11.8184H11.534V13.1632H12.8156V11.8184Z" fill="black"/>
<path d="M11.534 11.8184H10.2525V13.1632H11.534V11.8184Z" fill="black"/>
<path d="M10.2495 11.8184H8.9679V13.1632H10.2495V11.8184Z" fill="black"/>
<path d="M8.9679 11.8184H7.68634V13.1632H8.9679V11.8184Z" fill="black"/>
<path d="M7.68332 11.8184H6.40176V13.1632H7.68332V11.8184Z" fill="black"/>
<path d="M28.2064 10.4736H26.9248V11.8185H28.2064V10.4736Z" fill="black"/>
<path d="M26.9248 10.4736H25.6432V11.8185H26.9248V10.4736Z" fill="black"/>
<path d="M14.1002 10.4736H12.8186V11.8185H14.1002V10.4736Z" fill="black"/>
<path d="M12.8186 10.4736H11.534V11.8185H12.8186V10.4736Z" fill="black"/>
<path d="M10.2525 10.4736H8.97092V11.8185H10.2525V10.4736Z" fill="black"/>
<path d="M8.9679 10.4736H7.68634V11.8185H8.9679V10.4736Z" fill="black"/>
<path d="M26.9248 9.12842H25.6432V10.4733H26.9248V9.12842Z" fill="black"/>
<path d="M25.6433 9.12842H24.3617V10.4733H25.6433V9.12842Z" fill="black"/>
<path d="M23.0771 9.12842H21.7955V10.4733H23.0771V9.12842Z" fill="black"/>
<path d="M19.2294 9.12842H17.9478V10.4733H19.2294V9.12842Z" fill="black"/>
<path d="M15.3817 9.12842H14.1002V10.4733H15.3817V9.12842Z" fill="black"/>
<path d="M14.0971 9.12842H12.8156V10.4733H14.0971V9.12842Z" fill="black"/>
<path d="M12.8156 9.12842H11.534V10.4733H12.8156V9.12842Z" fill="black"/>
<path d="M11.534 10.4736H10.2525V11.8185H11.534V10.4736Z" fill="white"/>
<path d="M11.534 9.12842H10.2525V10.4733H11.534V9.12842Z" fill="black"/>
<path d="M10.2495 9.12842H8.9679V10.4733H10.2495V9.12842Z" fill="black"/>
<path d="M8.9679 9.12842H7.68634V10.4733H8.9679V9.12842Z" fill="black"/>
<path d="M7.68332 9.12842H6.40176V10.4733H7.68332V9.12842Z" fill="black"/>
<path d="M24.3617 7.78369H23.0771V9.12853H24.3617V7.78369Z" fill="black"/>
<path d="M23.0771 7.78369H21.7955V9.12853H23.0771V7.78369Z" fill="black"/>
<path d="M21.7955 7.78369H20.514V9.12853H21.7955V7.78369Z" fill="black"/>
<path d="M17.9478 7.78369H16.6663V9.12853H17.9478V7.78369Z" fill="black"/>
<path d="M14.1002 7.78369H12.8186V9.12853H14.1002V7.78369Z" fill="black"/>
<path d="M12.8156 7.78369H11.534V9.12853H12.8156V7.78369Z" fill="black"/>
<path d="M11.534 7.78369H10.2525V9.12853H11.534V7.78369Z" fill="black"/>
<path d="M10.2495 7.78369H8.9679V9.12853H10.2495V7.78369Z" fill="black"/>
<path d="M8.9679 7.78369H7.68634V9.12853H8.9679V7.78369Z" fill="black"/>
<path d="M7.68332 7.78369H6.40176V9.12853H7.68332V7.78369Z" fill="black"/>
<path d="M23.0771 6.43604H21.7955V7.78088H23.0771V6.43604Z" fill="black"/>
<path d="M21.7955 6.43604H20.514V7.78388H21.7955V6.43604Z" fill="black"/>
<path d="M14.1002 6.43604H12.8186V7.78388H14.1002V6.43604Z" fill="black"/>
<path d="M12.8156 6.43604H11.534V7.78088H12.8156V6.43604Z" fill="black"/>
<path d="M11.534 6.43604H10.2525V7.78088H11.534V6.43604Z" fill="black"/>
<path d="M8.9679 6.43604H7.68634V7.78088H8.9679V6.43604Z" fill="black"/>
<path d="M20.514 5.09082H19.2294V6.43566H20.514V5.09082Z" fill="black"/>
<path d="M19.2294 5.09082H17.9478V6.43566H19.2294V5.09082Z" fill="black"/>
<path d="M15.3817 5.09082H14.1002V6.43566H15.3817V5.09082Z" fill="black"/>
<path d="M14.0971 5.09082H12.8156V6.43566H14.0971V5.09082Z" fill="black"/>
<path d="M12.8156 5.09082H11.534V6.43566H12.8156V5.09082Z" fill="black"/>
<path d="M11.534 5.09082H10.2525V6.43566H11.534V5.09082Z" fill="black"/>
<path d="M19.2294 3.74609H17.9478V5.09093H19.2294V3.74609Z" fill="black"/>
<path d="M17.9478 3.74609H16.6663V5.09093H17.9478V3.74609Z" fill="black"/>
<path d="M15.3817 3.74609H14.1002V5.09093H15.3817V3.74609Z" fill="black"/>
<path d="M14.0971 3.74609H12.8156V5.09093H14.0971V3.74609Z" fill="black"/>
<path d="M12.8156 3.74609H11.534V5.09093H12.8156V3.74609Z" fill="black"/>
<path d="M11.534 3.74609H10.2525V5.09093H11.534V3.74609Z" fill="black"/>
<path d="M17.9448 2.40137H16.6633V3.74621H17.9448V2.40137Z" fill="black"/>
<path d="M43.6001 48.1468V45.4542H41.034V46.799H39.7524V44.1093H41.034V41.4196H39.7524V38.727H38.4709V37.3821H35.9047V36.0373H37.1863V33.3446H35.9047V31.9998H34.6232V33.3446H33.3386V31.9998H32.0571V30.6549H33.3386V31.9998H34.6232V29.3101H33.3386V26.6174H34.6232V25.2725H32.0571V23.9277H30.7725V22.5829H32.0571V21.238H37.1863V18.5453H35.9047V17.2005H34.6232V18.5453H33.3386V15.8557H30.7725V14.5108H28.2094V13.163H26.9248V11.8181H25.6432V10.4733H24.3617V9.12846H23.0771V10.4733H21.7955V9.12846H20.514V6.43578H17.9479V5.09093H16.6663V3.74609H15.3817V6.43578H14.1002V9.12846H15.3817V10.4733H14.1002V17.2005H15.3817V18.5453H14.1002V19.8902H12.8186V21.238H14.1002V23.9277H12.8186V25.2725H16.6663V21.238H17.9479V23.9277H20.514V21.238H21.7955V23.9277H20.514V25.2725H21.7955V26.6174H23.0771V29.3101H24.3617V30.6549H25.6432V31.9998H26.9248V33.3446H25.6432V34.6924H26.9248V36.0373H29.4909V37.3821H28.2094V38.727H29.4909V40.0718H30.7725V44.1093H33.3386V49.4917H34.6232V50.8365H37.1863V52.1814H39.7524V50.8365H44.8817V48.1468H43.6001ZM16.6663 14.5108V13.163H17.9479V14.5108H16.6663ZM19.2294 18.5453H17.9479V17.2005H19.2294V18.5453ZM19.2294 10.4733H17.9479V9.12846H16.6663V7.78362H17.9479V9.12846H19.2294V10.4733ZM20.514 14.5108V13.163H21.7955V14.5108H20.514ZM23.0771 18.5453H21.7955V17.2005H23.0771V18.5453ZM24.3617 13.163H25.6432V14.5108H24.3617V13.163ZM25.6432 23.9277H24.3617V21.238H25.6432V23.9277ZM26.9248 18.5453H25.6432V17.2005H26.9248V18.5453ZM29.4909 17.2005H30.7725V18.5453H29.4909V17.2005ZM28.2094 21.238H29.4909V23.9277H28.2094V21.238ZM30.7725 33.3446H29.4909V31.9998H28.2094V30.6549H29.4909V31.9998H30.7725V33.3446ZM32.0571 37.3821V36.0373H33.3386V37.3821H32.0571ZM34.6232 41.4196H33.3386V40.0718H34.6232V41.4196ZM37.1863 46.799H35.9047V44.1093H37.1863V46.799ZM38.4709 41.4196H37.1863V40.0718H38.4709V41.4196Z" fill="white"/>
<path d="M16.6663 2.40137H15.3817V3.74621H16.6663V2.40137Z" fill="black"/>
<path d="M15.3817 2.40137H14.1002V3.74621H15.3817V2.40137Z" fill="black"/>
<path d="M14.0971 2.40137H12.8156V3.74621H14.0971V2.40137Z" fill="black"/>
<path d="M12.8156 2.40137H11.534V3.74621H12.8156V2.40137Z" fill="black"/>
</g>
<defs>
<clipPath id="clip0_12085_53671">
<rect width="51" height="64" fill="white"/>
</clipPath>
</defs>
</svg>
