<svg width="256" height="256" viewBox="0 0 256 256" fill="none" xmlns="http://www.w3.org/2000/svg">
<g clip-path="url(#clip0_12373_782)">
<path d="M127.994 255.987C198.683 255.987 255.987 198.683 255.987 127.994C255.987 57.3047 198.683 0 127.994 0C57.3047 0 0 57.3047 0 127.994C0 198.683 57.3047 255.987 127.994 255.987Z" fill="#EB7B13"/>
<path d="M127.994 246.522C193.455 246.522 246.522 193.455 246.522 127.994C246.522 62.5327 193.455 9.46582 127.994 9.46582C62.5327 9.46582 9.46582 62.5327 9.46582 127.994C9.46582 193.455 62.5327 246.522 127.994 246.522Z" fill="#102231"/>
<path d="M127.893 49.1101C132.265 49.1733 136.246 50.7151 140.101 52.5854C147.797 56.3135 154.646 61.3054 161.243 66.6764C167.006 71.3649 172.478 76.3947 177.647 81.7278C186.316 90.6878 194.392 100.128 200.736 110.921C203.465 115.571 205.841 120.386 206.675 125.808C207.32 130.029 206.081 133.908 204.502 137.687C201.443 145.03 197.008 151.551 192.117 157.768C179.454 173.843 164.971 187.985 147.772 199.207C144.347 201.444 140.707 203.276 136.966 204.932C130.407 207.838 124.038 207.371 117.618 204.439C110.465 201.178 103.995 196.869 97.853 192.054C84.4066 181.527 72.4893 169.496 62.1897 155.873C58.4869 150.982 55.2895 145.788 52.4082 140.354C47.9092 131.886 48.1367 123.672 52.6104 115.268C56.8187 107.357 61.9622 100.115 67.687 93.2659C77.1905 81.9047 87.7556 71.6429 99.5844 62.7082C106.042 57.83 112.753 53.3563 120.436 50.5761C122.838 49.7041 125.302 49.0469 127.905 49.0975L127.893 49.1101ZM138.9 82.7893C135.589 82.9031 133.011 83.6739 130.483 84.5712C120.083 88.2867 110.453 93.5692 101.164 99.4836C95.6414 102.997 90.2957 106.763 85.6577 111.439C83.0038 114.118 81.9928 117.088 83.0291 120.791C83.6736 123.065 84.2802 125.353 85.1648 127.552C90.182 140.164 96.8546 151.854 104.854 162.798C107.319 166.172 109.96 169.407 113.347 171.948C114.686 172.959 116.19 173.502 117.896 173.325C120.626 173.034 123.267 172.327 125.833 171.366C137.763 166.918 148.77 160.713 159.259 153.547C163.404 150.716 167.385 147.683 170.772 143.943C172.453 142.072 173.54 140.012 173.123 137.384C172.693 134.717 171.973 132.139 171.037 129.612C167.537 120.235 162.81 111.464 157.528 102.984C153.749 96.9182 149.768 90.9658 144.599 85.9614C142.868 84.2806 141.048 82.625 138.925 82.7893H138.9Z" fill="#EB7C10"/>
</g>
<defs>
<clipPath id="clip0_12373_782">
<rect width="256" height="256" fill="white"/>
</clipPath>
</defs>
</svg>
